<svg width="320" height="482" viewBox="0 0 320 482" fill="none" xmlns="http://www.w3.org/2000/svg">
<path d="M191.487 118.731L125.826 315.496H70.5468L19.0792 161.001H25.5818L74.997 309.335H121.381L191.487 99.2353L225.45 200.987L238.806 161.001H245.297L225.45 220.483L191.487 118.731ZM257.179 105.903L255.133 112.075H310.891L245.077 309.335L205.833 309.313L178.152 226.402L133.583 359.945H140.096L178.152 245.898L201.388 315.496H249.511L319.461 105.903H257.179ZM168.657 0.514404L98.2114 211.637L62.9937 105.903H0.689453L2.74716 112.075H58.5435L95.2847 222.375L98.2114 231.265L101.138 222.375L175.17 0.514404H168.657Z" fill="#5371FF"/>
<path d="M27.5127 423.437C27.5127 423.648 27.5703 423.937 27.6856 424.417L48.1651 479.708C48.5493 480.764 49.5483 481.437 50.605 481.437C52.1227 481.437 53.2754 480.207 53.2754 478.862C53.2754 478.651 53.2369 478.363 53.1025 477.883L32.623 422.592C32.2387 421.535 31.2397 420.863 30.1831 420.863C28.6654 420.863 27.5127 422.092 27.5127 423.437ZM53.1793 464.857C53.1793 466.202 54.332 467.47 55.8881 467.47C57.0216 467.47 57.8285 466.874 58.2896 465.741L73.6588 424.417C73.7933 423.994 73.8701 423.648 73.8701 423.437C73.8701 422.092 72.7367 420.863 71.1613 420.863C70.0278 420.863 69.2209 421.458 68.7599 422.592L53.3522 463.916C53.2369 464.262 53.1793 464.55 53.1793 464.857ZM64.6678 456.904C64.6678 457.038 64.7447 457.326 64.8791 457.749L73.4091 479.708C73.8701 480.803 74.677 481.36 75.8489 481.36C77.3666 481.36 78.3464 480.169 78.3464 478.786C78.3464 478.517 78.308 478.228 78.1735 477.883L69.6052 455.943C69.1441 454.848 68.3372 454.291 67.2037 454.291C65.686 454.291 64.6678 455.52 64.6678 456.904ZM79.0957 462.782C79.0957 464.127 80.2484 465.395 81.8045 465.395C82.938 465.395 83.7449 464.8 84.2059 463.666L98.8259 424.417C98.9412 423.994 99.0373 423.648 99.0373 423.437C99.0373 422.092 97.8846 420.863 96.3284 420.863C95.1949 420.863 94.3881 421.458 93.927 422.592L79.307 461.86C79.1917 462.264 79.0957 462.571 79.0957 462.782ZM128.719 409.72C128.719 410.316 128.93 410.854 129.334 411.372C129.891 412.006 130.563 412.294 131.409 412.294C132.043 412.294 132.6 412.083 133.061 411.699L133.138 411.622C136.308 408.875 138.671 405.878 140.323 402.535C140.496 402.208 140.573 401.824 140.573 401.401C140.573 399.922 139.516 398.827 137.96 398.827C136.807 398.827 136.058 399.288 135.635 400.268C134.233 403.015 132.254 405.455 129.68 407.607C129.046 408.164 128.719 408.875 128.719 409.72ZM130.352 478.862C130.352 480.342 131.505 481.437 132.965 481.437C134.444 481.437 135.539 480.342 135.539 478.862V423.514C135.539 422.035 134.444 420.94 132.965 420.94C131.505 420.94 130.352 422.035 130.352 423.514V478.862ZM170.389 423.514V478.862C170.389 480.342 171.522 481.437 173.002 481.437C174.481 481.437 175.576 480.342 175.576 478.862V423.514C175.576 422.035 174.481 420.94 173.002 420.94C171.522 420.94 170.389 422.035 170.389 423.514ZM179.534 449.565C179.534 451.044 180.686 452.139 182.166 452.139H195.46C200.359 452.139 204.24 450.833 207.141 448.22C210.022 445.646 211.444 441.803 211.444 436.77C211.444 431.66 210.022 427.741 207.102 425.032C204.201 422.38 200.263 421.036 195.287 421.036V420.94H181.608C180.898 420.94 180.264 421.209 179.803 421.67C178.784 422.669 178.784 424.359 179.803 425.377C180.264 425.877 180.898 426.146 181.608 426.146H195.287C202.587 426.146 206.257 429.642 206.257 436.693C206.257 443.532 202.664 446.952 195.46 446.952H182.166C180.686 446.952 179.534 448.086 179.534 449.565ZM185.528 456.481C185.528 457.211 185.797 457.807 186.296 458.306L209.984 480.764C210.522 481.225 211.117 481.437 211.79 481.437C212.501 481.437 213.096 481.187 213.615 480.668C214.076 480.13 214.326 479.496 214.326 478.862C214.326 478.19 214.076 477.594 213.519 477.057L189.831 454.598C189.293 454.118 188.659 453.868 188.025 453.868C187.353 453.868 186.757 454.118 186.219 454.675C185.739 455.232 185.528 455.809 185.528 456.481ZM264.429 423.61C264.429 423.994 264.525 424.321 264.698 424.667L288.367 479.996C288.828 481.014 289.635 481.514 290.826 481.514C291.153 481.514 291.498 481.437 291.825 481.264C292.882 480.803 293.4 479.996 293.4 478.862C293.4 478.478 293.304 478.152 293.131 477.806L269.463 422.515C269.002 421.458 268.195 420.94 267.004 420.94C266.677 420.94 266.331 421.036 266.005 421.209C264.948 421.67 264.429 422.457 264.429 423.61ZM240.665 478.939C240.665 480.303 241.721 481.514 243.239 481.514C244.43 481.514 245.237 481.014 245.698 479.996L264.852 435.214C265.025 434.868 265.102 434.503 265.102 434.08C265.102 432.716 264.064 431.506 262.527 431.506C261.394 431.506 260.587 432.005 260.126 433.062L240.914 477.806C240.761 478.152 240.665 478.517 240.665 478.939ZM258.186 461.169C258.704 461.687 259.319 461.937 260.049 461.937H273.843C275.322 461.937 276.475 460.804 276.475 459.324C276.475 457.845 275.322 456.75 273.843 456.75H260.049C259.319 456.75 258.704 457 258.186 457.461C257.167 458.479 257.167 460.17 258.186 461.169Z" fill="#5371FF"/>
</svg>
