<svg width="481" height="481" viewBox="0 0 481 481" fill="none" xmlns="http://www.w3.org/2000/svg">
<rect width="481" height="481" rx="50" fill="white"/>
<path d="M271.797 179.216L206.137 375.981H150.857L99.3898 221.486H105.892L155.308 369.821H201.692L271.797 159.721L305.76 261.473L319.116 221.486H325.608L305.76 280.968L271.797 179.216ZM337.49 166.388L335.444 172.56H391.201L325.388 369.821L286.143 369.799L258.463 286.888L213.893 420.43H220.407L258.463 306.383L281.699 375.981H329.821L399.772 166.388H337.49ZM248.968 61L178.522 272.123L143.304 166.388H81L83.0577 172.56H138.854L175.595 282.861L178.522 291.75L181.449 282.861L255.481 61H248.968Z" fill="#5371FF"/>
</svg>
