<svg width="578" height="180" viewBox="0 0 578 180" fill="none" xmlns="http://www.w3.org/2000/svg">
<path d="M0 53.4886C0 53.9479 0.125262 54.5742 0.375785 55.6181L44.8855 175.79C45.7206 178.087 47.8918 179.548 50.1883 179.548C53.4868 179.548 55.9921 176.876 55.9921 173.953C55.9921 173.493 55.9086 172.867 55.6163 171.823L11.1066 51.6514C10.2715 49.3548 8.10027 47.8934 5.8038 47.8934C2.50524 47.8934 0 50.5657 0 53.4886ZM55.7833 143.513C55.7833 146.436 58.2885 149.192 61.6706 149.192C64.1341 149.192 65.8878 147.897 66.8899 145.434L100.293 55.6181C100.585 54.6995 100.752 53.9479 100.752 53.4886C100.752 50.5657 98.2889 47.8934 94.865 47.8934C92.4016 47.8934 90.6479 49.1878 89.6458 51.6514L56.1591 141.467C55.9086 142.219 55.7833 142.845 55.7833 143.513ZM80.7522 126.226C80.7522 126.519 80.9192 127.145 81.2115 128.064L99.7502 175.79C100.752 178.17 102.506 179.381 105.053 179.381C108.352 179.381 110.481 176.792 110.481 173.786C110.481 173.201 110.397 172.575 110.105 171.823L91.483 124.139C90.4809 121.759 88.7272 120.548 86.2637 120.548C82.9651 120.548 80.7522 123.22 80.7522 126.226ZM112.109 139.004C112.109 141.926 114.615 144.682 117.997 144.682C120.46 144.682 122.214 143.388 123.216 140.924L154.991 55.6181C155.241 54.6995 155.45 53.9479 155.45 53.4886C155.45 50.5657 152.945 47.8934 149.563 47.8934C147.099 47.8934 145.346 49.1878 144.343 51.6514L112.569 136.999C112.318 137.876 112.109 138.544 112.109 139.004ZM219.96 23.6753C219.96 24.9697 220.419 26.1388 221.296 27.2662C222.507 28.6442 223.968 29.2705 225.805 29.2705C227.183 29.2705 228.394 28.8112 229.396 27.9761L229.563 27.8091C236.453 21.838 241.589 15.3242 245.179 8.05878C245.555 7.34894 245.722 6.51383 245.722 5.59522C245.722 2.38006 243.426 0 240.044 0C237.538 0 235.91 1.00213 234.991 3.13165C231.943 9.10266 227.643 14.4056 222.048 19.0822C220.67 20.2931 219.96 21.838 219.96 23.6753ZM223.509 173.953C223.509 177.168 226.014 179.548 229.188 179.548C232.403 179.548 234.783 177.168 234.783 173.953V53.6556C234.783 50.4405 232.403 48.0604 229.188 48.0604C226.014 48.0604 223.509 50.4405 223.509 53.6556V173.953ZM310.524 53.6556V173.953C310.524 177.168 312.988 179.548 316.203 179.548C319.418 179.548 321.798 177.168 321.798 173.953V53.6556C321.798 50.4405 319.418 48.0604 316.203 48.0604C312.988 48.0604 310.524 50.4405 310.524 53.6556ZM330.399 110.276C330.399 113.491 332.904 115.871 336.119 115.871H365.013C375.66 115.871 384.095 113.032 390.4 107.353C396.663 101.758 399.753 93.4067 399.753 82.4668C399.753 71.3599 396.663 62.8418 390.316 56.9543C384.011 51.192 375.452 48.2692 364.637 48.2692V48.0604H334.909C333.364 48.0604 331.986 48.645 330.984 49.6471C328.771 51.8184 328.771 55.4928 330.984 57.7059C331.986 58.7915 333.364 59.3761 334.909 59.3761H364.637C380.504 59.3761 388.479 66.9756 388.479 82.2998C388.479 97.1647 380.671 104.597 365.013 104.597H336.119C332.904 104.597 330.399 107.061 330.399 110.276ZM343.426 125.308C343.426 126.894 344.011 128.189 345.097 129.275L396.579 178.087C397.748 179.089 399.043 179.548 400.504 179.548C402.049 179.548 403.343 179.005 404.471 177.878C405.473 176.709 406.016 175.331 406.016 173.953C406.016 172.491 405.473 171.197 404.262 170.028L352.779 121.216C351.61 120.172 350.232 119.629 348.854 119.629C347.393 119.629 346.099 120.172 344.93 121.383C343.886 122.594 343.426 123.846 343.426 125.308ZM514.91 53.8644C514.91 54.6995 515.119 55.4093 515.495 56.1609L566.935 176.416C567.938 178.629 569.691 179.715 572.28 179.715C572.99 179.715 573.741 179.548 574.451 179.172C576.748 178.17 577.875 176.416 577.875 173.953C577.875 173.118 577.666 172.408 577.29 171.656L525.85 51.4843C524.847 49.1878 523.094 48.0604 520.505 48.0604C519.795 48.0604 519.044 48.2692 518.334 48.645C516.037 49.6471 514.91 51.3591 514.91 53.8644ZM463.26 174.12C463.26 177.084 465.557 179.715 468.855 179.715C471.444 179.715 473.198 178.629 474.2 176.416L515.829 79.0846C516.204 78.333 516.371 77.5397 516.371 76.6211C516.371 73.6564 514.117 71.0258 510.776 71.0258C508.313 71.0258 506.559 72.1115 505.557 74.408L463.803 171.656C463.469 172.408 463.26 173.201 463.26 174.12ZM501.34 135.496C502.467 136.623 503.803 137.166 505.39 137.166H535.369C538.584 137.166 541.09 134.703 541.09 131.488C541.09 128.272 538.584 125.892 535.369 125.892H505.39C503.803 125.892 502.467 126.435 501.34 127.437C499.127 129.65 499.127 133.325 501.34 135.496Z" fill="#5371FF"/>
</svg>
